<svg width="177.000000" height="42.000000" viewBox="0 0 177 42" fill="none" xmlns="http://www.w3.org/2000/svg" xmlns:xlink="http://www.w3.org/1999/xlink">
	<desc>
			Created with Pixso.
	</desc>
	<defs>
		<clipPath id="clip203_1813">
			<rect id="books-stack-of-three 2" width="42.000000" height="42.000000" fill="white" fill-opacity="0"/>
		</clipPath>
	</defs>
	<path id="LIBRARY" d="M47.7964 8.59338L51.1016 8.59338L51.1016 15.8292L55.5244 15.8292L55.5244 18.3927L47.7964 18.3927L47.7964 8.59338ZM56.4344 8.59338L59.7396 8.59338L59.7396 18.3927L56.4344 18.3927L56.4344 8.59338ZM69.1752 13.2692Q70.0434 13.5905 70.5185 14.2091Q70.997 14.8243 70.997 15.6891Q70.997 16.9777 69.9306 17.6852Q68.8676 18.3927 66.851 18.3927L61.3344 18.3927L61.3344 8.59338L66.5707 8.59338Q68.5326 8.59338 69.5341 9.29407Q70.5356 9.99133 70.5356 11.1534Q70.5356 11.8405 70.1903 12.3873Q69.8485 12.9342 69.1752 13.2692ZM64.5849 10.9039L64.5849 12.36L66.123 12.36Q67.203 12.36 67.203 11.632Q67.203 10.9039 66.123 10.9039L64.5849 10.9039ZM66.5707 16.0822Q67.6645 16.0822 67.6645 15.3131Q67.6645 14.5441 66.5707 14.5441L64.5849 14.5441L64.5849 16.0822L66.5707 16.0822ZM76.3571 15.9283L75.4616 15.9283L75.4616 18.3927L72.1564 18.3927L72.1564 8.59338L76.8766 8.59338Q78.2335 8.59338 79.2418 9.04114Q80.2501 9.48889 80.7936 10.3297Q81.3405 11.1671 81.3405 12.2882Q81.3405 13.3375 80.8654 14.1237Q80.3903 14.9064 79.4948 15.3678L81.5524 18.3927L78.025 18.3927L76.3571 15.9283ZM78.0114 12.2882Q78.0114 11.7413 77.673 11.4406Q77.338 11.1398 76.6647 11.1398L75.4616 11.1398L75.4616 13.4366L76.6647 13.4366Q77.338 13.4366 77.673 13.1359Q78.0114 12.8351 78.0114 12.2882ZM89.2651 16.6837L85.5429 16.6837L84.8833 18.3927L81.5234 18.3927L85.8095 8.59338L89.0566 8.59338L93.3393 18.3927L89.9248 18.3927L89.2651 16.6837ZM88.3559 14.3048L87.4023 11.8405L86.4521 14.3048L88.3559 14.3048ZM98.0711 15.9283L97.1756 15.9283L97.1756 18.3927L93.8704 18.3927L93.8704 8.59338L98.5906 8.59338Q99.9475 8.59338 100.956 9.04114Q101.964 9.48889 102.508 10.3297Q103.054 11.1671 103.054 12.2882Q103.054 13.3375 102.579 14.1237Q102.104 14.9064 101.209 15.3678L103.266 18.3927L99.739 18.3927L98.0711 15.9283ZM99.7254 12.2882Q99.7254 11.7413 99.387 11.4406Q99.052 11.1398 98.3787 11.1398L97.1756 11.1398L97.1756 13.4366L98.3787 13.4366Q99.052 13.4366 99.387 13.1359Q99.7254 12.8351 99.7254 12.2882ZM109.985 14.838L109.985 18.3927L106.683 18.3927L106.683 14.7936L102.985 8.59338L106.471 8.59338L108.474 11.9806L110.49 8.59338L113.683 8.59338L109.985 14.838Z" fill="#720418" fill-opacity="1.000000" fill-rule="evenodd"/>
	<path id="book store" d="M54.8115 25.5023Q55.7732 25.5023 56.5508 25.9403Q57.3315 26.3751 57.7727 27.1686Q58.217 27.9589 58.217 28.9745Q58.217 29.9869 57.7727 30.7804Q57.3315 31.5739 56.5508 32.015Q55.7732 32.4562 54.8115 32.4562Q53.9514 32.4562 53.269 32.0944Q52.5867 31.7294 52.1709 31.0406L52.1709 32.3927L51.2886 32.3927L51.2886 22.7474L52.209 22.7474L52.209 26.8544Q52.6375 26.191 53.3071 25.8483Q53.9768 25.5023 54.8115 25.5023ZM54.7449 31.6373Q55.459 31.6373 56.043 31.3073Q56.6301 30.9772 56.9602 30.3678Q57.2935 29.7552 57.2935 28.9745Q57.2935 28.1937 56.9602 27.5844Q56.6301 26.9718 56.043 26.6417Q55.459 26.3085 54.7449 26.3085Q54.0181 26.3085 53.4373 26.6417Q52.8596 26.9718 52.5264 27.5844Q52.1963 28.1937 52.1963 28.9745Q52.1963 29.7552 52.5264 30.3678Q52.8596 30.9772 53.4373 31.3073Q54.0181 31.6373 54.7449 31.6373ZM62.8955 32.4562Q61.9085 32.4562 61.115 32.0087Q60.3216 31.5612 59.8645 30.7677Q59.4107 29.9742 59.4107 28.9745Q59.4107 27.9716 59.8645 27.1813Q60.3216 26.3878 61.115 25.9467Q61.9085 25.5023 62.8955 25.5023Q63.8826 25.5023 64.6761 25.9467Q65.4695 26.3878 65.917 27.1813Q66.3677 27.9716 66.3677 28.9745Q66.3677 29.9742 65.917 30.7677Q65.4695 31.5612 64.6761 32.0087Q63.8826 32.4562 62.8955 32.4562ZM62.8955 31.6373Q63.6255 31.6373 64.2032 31.3073Q64.7808 30.9772 65.1045 30.3678Q65.4314 29.7552 65.4314 28.9745Q65.4314 28.1937 65.1045 27.5844Q64.7808 26.9718 64.2032 26.6417Q63.6255 26.3085 62.8955 26.3085Q62.1687 26.3085 61.5879 26.6417Q61.0103 26.9718 60.677 27.5844Q60.347 28.1937 60.347 28.9745Q60.347 29.7552 60.677 30.3678Q61.0103 30.9772 61.5879 31.3073Q62.1687 31.6373 62.8955 31.6373ZM71.0465 32.4562Q70.0595 32.4562 69.266 32.0087Q68.4726 31.5612 68.0155 30.7677Q67.5617 29.9742 67.5617 28.9745Q67.5617 27.9716 68.0155 27.1813Q68.4726 26.3878 69.266 25.9467Q70.0595 25.5023 71.0465 25.5023Q72.0336 25.5023 72.8271 25.9467Q73.6205 26.3878 74.068 27.1813Q74.5187 27.9716 74.5187 28.9745Q74.5187 29.9742 74.068 30.7677Q73.6205 31.5612 72.8271 32.0087Q72.0336 32.4562 71.0465 32.4562ZM71.0465 31.6373Q71.7765 31.6373 72.3542 31.3073Q72.9318 30.9772 73.2555 30.3678Q73.5824 29.7552 73.5824 28.9745Q73.5824 28.1937 73.2555 27.5844Q72.9318 26.9718 72.3542 26.6417Q71.7765 26.3085 71.0465 26.3085Q70.3197 26.3085 69.7389 26.6417Q69.1613 26.9718 68.828 27.5844Q68.498 28.1937 68.498 28.9745Q68.498 29.7552 68.828 30.3678Q69.1613 30.9772 69.7389 31.3073Q70.3197 31.6373 71.0465 31.6373ZM78.9373 28.9618L77.325 30.444L77.325 32.3927L76.4046 32.3927L76.4046 22.7474L77.325 22.7474L77.325 29.2855L81.4065 25.5563L82.5523 25.5563L79.626 28.3492L82.8252 32.3927L81.6953 32.3927L78.9373 28.9618ZM89.4549 32.4562Q88.6233 32.4562 87.8616 32.2181Q87.1031 31.9769 86.6714 31.6119L87.0904 30.8851Q87.5188 31.2216 88.1663 31.4374Q88.8169 31.6532 89.5215 31.6532Q90.4546 31.6532 90.9021 31.3612Q91.3528 31.066 91.3528 30.5328Q91.3528 30.1552 91.1053 29.9425Q90.8577 29.7267 90.48 29.6188Q90.1055 29.5077 89.4803 29.403Q88.6487 29.2474 88.1409 29.0856Q87.6363 28.9205 87.2776 28.5333Q86.919 28.1429 86.919 27.4542Q86.919 26.5941 87.6331 26.0482Q88.3504 25.5023 89.6231 25.5023Q90.2864 25.5023 90.9497 25.6801Q91.6131 25.8546 92.0415 26.1403L91.6385 26.8798Q90.7942 26.2958 89.6231 26.2958Q88.7408 26.2958 88.2901 26.61Q87.8426 26.921 87.8426 27.4257Q87.8426 27.816 88.0965 28.0509Q88.3504 28.2858 88.7249 28.3969Q89.1026 28.5048 89.7659 28.6222Q90.5848 28.7777 91.0799 28.9364Q91.575 29.0919 91.9241 29.4696Q92.2764 29.8441 92.2764 30.5074Q92.2764 31.4056 91.5274 31.9325Q90.7815 32.4562 89.4549 32.4562ZM97.5797 31.9769Q97.3194 32.2118 96.9354 32.3356Q96.5546 32.4562 96.1356 32.4562Q95.1739 32.4562 94.6534 31.9388Q94.1361 31.4183 94.1361 30.4694L94.1361 26.3339L92.9142 26.3339L92.9142 25.5563L94.1361 25.5563L94.1361 24.0582L95.0565 24.0582L95.0565 25.5563L97.1385 25.5563L97.1385 26.3339L95.0565 26.3339L95.0565 30.4154Q95.0565 31.028 95.3612 31.3485Q95.6691 31.6659 96.2403 31.6659Q96.526 31.6659 96.7926 31.5739Q97.0592 31.4818 97.256 31.3136L97.5797 31.9769ZM101.805 32.4562Q100.817 32.4562 100.024 32.0087Q99.2306 31.5612 98.7735 30.7677Q98.3197 29.9742 98.3197 28.9745Q98.3197 27.9716 98.7735 27.1813Q99.2306 26.3878 100.024 25.9467Q100.817 25.5023 101.805 25.5023Q102.792 25.5023 103.585 25.9467Q104.379 26.3878 104.826 27.1813Q105.277 27.9716 105.277 28.9745Q105.277 29.9742 104.826 30.7677Q104.379 31.5612 103.585 32.0087Q102.792 32.4562 101.805 32.4562ZM101.805 31.6373Q102.535 31.6373 103.112 31.3073Q103.69 30.9772 104.014 30.3678Q104.34 29.7552 104.34 28.9745Q104.34 28.1937 104.014 27.5844Q103.69 26.9718 103.112 26.6417Q102.535 26.3085 101.805 26.3085Q101.078 26.3085 100.497 26.6417Q99.9193 26.9718 99.586 27.5844Q99.256 28.1937 99.256 28.9745Q99.256 29.7552 99.586 30.3678Q99.9193 30.9772 100.497 31.3073Q101.078 31.6373 101.805 31.6373ZM108.045 26.8925Q108.369 26.2037 109.013 25.8546Q109.657 25.5023 110.606 25.5023L110.606 26.4005L110.384 26.3878Q109.305 26.3878 108.692 27.0511Q108.083 27.7113 108.083 28.9078L108.083 32.3927L107.163 32.3927L107.163 25.5563L108.045 25.5563L108.045 26.8925ZM118.158 29.2601L112.438 29.2601Q112.518 30.3265 113.257 30.9835Q114 31.6373 115.13 31.6373Q115.768 31.6373 116.301 31.412Q116.834 31.1835 117.224 30.7423L117.742 31.339Q117.288 31.8849 116.605 32.1705Q115.923 32.4562 115.104 32.4562Q114.051 32.4562 113.238 32.0087Q112.426 31.5612 111.969 30.7677Q111.515 29.9742 111.515 28.9745Q111.515 27.9716 111.949 27.1813Q112.387 26.3878 113.146 25.9467Q113.908 25.5023 114.857 25.5023Q115.806 25.5023 116.558 25.9467Q117.313 26.3878 117.742 27.1749Q118.173 27.9589 118.173 28.9745L118.158 29.2601ZM114.857 26.2958Q113.87 26.2958 113.2 26.9274Q112.53 27.5558 112.438 28.5714L117.288 28.5714Q117.196 27.5558 116.526 26.9274Q115.856 26.2958 114.857 26.2958Z" fill="#241400" fill-opacity="1.000000" fill-rule="evenodd"/>
	<line id="Line 1" x1="48.000000" y1="20.892700" x2="175.000000" y2="20.892700" stroke="#000000" stroke-opacity="0.590000" stroke-width="1.000000"/>
	<rect id="books-stack-of-three 2" width="42.000000" height="42.000000" fill="#FFFFFF" fill-opacity="0"/>
	<g clip-path="url(#clip203_1813)">
		<path id="Vector" d="M39.0039 14.9043C38.834 13.6276 38.8101 11.4285 39.9956 10.6901C40.0171 10.6765 40.0327 10.657 40.0513 10.6403C41.021 10.3301 41.6919 9.8949 41.165 9.30933L26.8633 5L3.70508 8.21973C3.70508 8.21973 1.05322 8.59875 1.29004 12.7188C1.41895 14.9612 2.12207 16.0625 2.7373 16.6045L0.836914 17.1771C0.30957 17.7627 0.980469 18.198 1.94971 18.5077C1.96826 18.5249 1.98389 18.5444 2.00537 18.5579C3.19043 19.297 3.16797 21.4957 2.99707 22.7727C-1.26025 23.9817 0.268066 24.3756 0.268066 24.3756L1.20215 24.6016C0.544922 25.1952 -0.107422 26.3209 0.0146484 28.4559C0.251953 32.5752 2.43018 32.8595 2.43018 32.8595L17.5845 37.7853L40.4585 32.2448C40.4585 32.2448 41.9873 31.8502 37.7285 30.6411C37.5576 29.3662 37.5337 27.1676 38.7217 26.4268C38.7432 26.4136 38.7593 26.3937 38.7769 26.3771C39.7466 26.067 40.417 25.6322 39.8901 25.0466L38.896 24.7463C39.5591 24.3466 40.5547 23.3015 40.7109 20.5872C40.8184 18.72 40.3315 17.6265 39.7676 16.9827L41.7329 16.5072C41.7329 16.5079 43.2617 16.1133 39.0039 14.9043ZM19.8711 14.8514L23.7178 14.0609L36.7168 11.3896L38.6533 10.9913C38.0347 12.1239 38.0605 13.674 38.1631 14.6702C38.1855 14.8955 38.2114 15.1013 38.2363 15.2577L36.1167 15.7848L19.7095 19.8663L19.8711 14.8514ZM3.34814 18.8604L5.28418 19.2587L17.7681 21.825L18.8589 22.0483L22.1294 22.7206L22.2905 27.7356L5.42773 23.5402L3.76562 23.1271C3.79004 22.9703 3.81543 22.7648 3.83887 22.5388C3.94092 21.5433 3.96729 19.9929 3.34814 18.8604ZM2.5957 12.5205C2.57227 11.4246 2.76758 10.6321 3.16211 10.2292C3.41357 9.97205 3.70996 9.91846 3.91309 9.91846C4.02051 9.91846 4.09814 9.93335 4.10303 9.93335L14.0815 13.1864L19.0596 14.8096L18.8965 19.8595L4.93018 15.944L4.19336 15.7375C4.16602 15.7299 4.12939 15.7246 4.10107 15.7234C4.04346 15.7192 2.66309 15.5922 2.5957 12.5205ZM17.6206 35.5974L2.91797 31.4753C2.89062 31.4674 2.85449 31.4622 2.82617 31.4608C2.76758 31.4569 1.38623 31.33 1.31934 28.259C1.29541 27.1617 1.4917 26.37 1.88574 25.9667C2.1377 25.7095 2.43408 25.656 2.63721 25.656C2.74463 25.656 2.82178 25.6704 2.82764 25.6704L17.7832 30.5472L17.6206 35.5974ZM36.8867 30.4072C36.9097 30.6334 36.9355 30.8389 36.9604 30.9955L18.4336 35.6045L18.5952 30.5895L22.5562 29.7751L23.1411 29.9166L25.334 29.2041L35.4404 27.1273L37.3779 26.7286C36.7583 27.8612 36.7842 29.4117 36.8867 30.4072ZM37.9072 23.5917C37.8735 23.5924 37.8398 23.5969 37.8081 23.6071L36.4106 23.9982L23.106 27.7289L22.9429 22.679L27.3081 21.2551L37.8779 17.8081C37.8794 17.8075 38.4341 17.6843 38.8413 18.0983C39.2354 18.5011 39.4307 19.2937 39.4077 20.3895C39.3389 23.4602 37.9575 23.5878 37.9072 23.5917Z" fill="#720418" fill-opacity="1.000000" fill-rule="nonzero"/>
	</g>
</svg>
